%TF.GenerationSoftware,KiCad,Pcbnew,(5.1.9)-1*%
%TF.CreationDate,2021-04-07T17:32:18-07:00*%
%TF.ProjectId,driveCaddyAdapter,64726976-6543-4616-9464-794164617074,rev?*%
%TF.SameCoordinates,Original*%
%TF.FileFunction,Legend,Top*%
%TF.FilePolarity,Positive*%
%FSLAX46Y46*%
G04 Gerber Fmt 4.6, Leading zero omitted, Abs format (unit mm)*
G04 Created by KiCad (PCBNEW (5.1.9)-1) date 2021-04-07 17:32:18*
%MOMM*%
%LPD*%
G01*
G04 APERTURE LIST*
%ADD10C,0.150000*%
%ADD11C,0.120000*%
%ADD12C,0.152400*%
G04 APERTURE END LIST*
D10*
X215354523Y-62079619D02*
X215259285Y-62032000D01*
X215164047Y-61936761D01*
X215021190Y-61793904D01*
X214925952Y-61746285D01*
X214830714Y-61746285D01*
X214878333Y-61984380D02*
X214783095Y-61936761D01*
X214687857Y-61841523D01*
X214640238Y-61651047D01*
X214640238Y-61317714D01*
X214687857Y-61127238D01*
X214783095Y-61032000D01*
X214878333Y-60984380D01*
X215068809Y-60984380D01*
X215164047Y-61032000D01*
X215259285Y-61127238D01*
X215306904Y-61317714D01*
X215306904Y-61651047D01*
X215259285Y-61841523D01*
X215164047Y-61936761D01*
X215068809Y-61984380D01*
X214878333Y-61984380D01*
X216164047Y-61317714D02*
X216164047Y-61984380D01*
X215735476Y-61317714D02*
X215735476Y-61841523D01*
X215783095Y-61936761D01*
X215878333Y-61984380D01*
X216021190Y-61984380D01*
X216116428Y-61936761D01*
X216164047Y-61889142D01*
X217068809Y-61984380D02*
X217068809Y-61460571D01*
X217021190Y-61365333D01*
X216925952Y-61317714D01*
X216735476Y-61317714D01*
X216640238Y-61365333D01*
X217068809Y-61936761D02*
X216973571Y-61984380D01*
X216735476Y-61984380D01*
X216640238Y-61936761D01*
X216592619Y-61841523D01*
X216592619Y-61746285D01*
X216640238Y-61651047D01*
X216735476Y-61603428D01*
X216973571Y-61603428D01*
X217068809Y-61555809D01*
X217545000Y-61317714D02*
X217545000Y-61984380D01*
X217545000Y-61412952D02*
X217592619Y-61365333D01*
X217687857Y-61317714D01*
X217830714Y-61317714D01*
X217925952Y-61365333D01*
X217973571Y-61460571D01*
X217973571Y-61984380D01*
X218306904Y-61317714D02*
X218687857Y-61317714D01*
X218449761Y-60984380D02*
X218449761Y-61841523D01*
X218497380Y-61936761D01*
X218592619Y-61984380D01*
X218687857Y-61984380D01*
X219449761Y-61317714D02*
X219449761Y-61984380D01*
X219021190Y-61317714D02*
X219021190Y-61841523D01*
X219068809Y-61936761D01*
X219164047Y-61984380D01*
X219306904Y-61984380D01*
X219402142Y-61936761D01*
X219449761Y-61889142D01*
X219925952Y-61984380D02*
X219925952Y-61317714D01*
X219925952Y-61412952D02*
X219973571Y-61365333D01*
X220068809Y-61317714D01*
X220211666Y-61317714D01*
X220306904Y-61365333D01*
X220354523Y-61460571D01*
X220354523Y-61984380D01*
X220354523Y-61460571D02*
X220402142Y-61365333D01*
X220497380Y-61317714D01*
X220640238Y-61317714D01*
X220735476Y-61365333D01*
X220783095Y-61460571D01*
X220783095Y-61984380D01*
X222545000Y-61032000D02*
X222449761Y-60984380D01*
X222306904Y-60984380D01*
X222164047Y-61032000D01*
X222068809Y-61127238D01*
X222021190Y-61222476D01*
X221973571Y-61412952D01*
X221973571Y-61555809D01*
X222021190Y-61746285D01*
X222068809Y-61841523D01*
X222164047Y-61936761D01*
X222306904Y-61984380D01*
X222402142Y-61984380D01*
X222545000Y-61936761D01*
X222592619Y-61889142D01*
X222592619Y-61555809D01*
X222402142Y-61555809D01*
X223449761Y-61317714D02*
X223449761Y-61984380D01*
X223021190Y-61317714D02*
X223021190Y-61841523D01*
X223068809Y-61936761D01*
X223164047Y-61984380D01*
X223306904Y-61984380D01*
X223402142Y-61936761D01*
X223449761Y-61889142D01*
X224354523Y-61984380D02*
X224354523Y-61460571D01*
X224306904Y-61365333D01*
X224211666Y-61317714D01*
X224021190Y-61317714D01*
X223925952Y-61365333D01*
X224354523Y-61936761D02*
X224259285Y-61984380D01*
X224021190Y-61984380D01*
X223925952Y-61936761D01*
X223878333Y-61841523D01*
X223878333Y-61746285D01*
X223925952Y-61651047D01*
X224021190Y-61603428D01*
X224259285Y-61603428D01*
X224354523Y-61555809D01*
X224830714Y-61984380D02*
X224830714Y-61317714D01*
X224830714Y-61508190D02*
X224878333Y-61412952D01*
X224925952Y-61365333D01*
X225021190Y-61317714D01*
X225116428Y-61317714D01*
X225878333Y-61984380D02*
X225878333Y-60984380D01*
X225878333Y-61936761D02*
X225783095Y-61984380D01*
X225592619Y-61984380D01*
X225497380Y-61936761D01*
X225449761Y-61889142D01*
X225402142Y-61793904D01*
X225402142Y-61508190D01*
X225449761Y-61412952D01*
X225497380Y-61365333D01*
X225592619Y-61317714D01*
X225783095Y-61317714D01*
X225878333Y-61365333D01*
X226354523Y-61984380D02*
X226354523Y-61317714D01*
X226354523Y-60984380D02*
X226306904Y-61032000D01*
X226354523Y-61079619D01*
X226402142Y-61032000D01*
X226354523Y-60984380D01*
X226354523Y-61079619D01*
X227259285Y-61984380D02*
X227259285Y-61460571D01*
X227211666Y-61365333D01*
X227116428Y-61317714D01*
X226925952Y-61317714D01*
X226830714Y-61365333D01*
X227259285Y-61936761D02*
X227164047Y-61984380D01*
X226925952Y-61984380D01*
X226830714Y-61936761D01*
X226783095Y-61841523D01*
X226783095Y-61746285D01*
X226830714Y-61651047D01*
X226925952Y-61603428D01*
X227164047Y-61603428D01*
X227259285Y-61555809D01*
X227735476Y-61317714D02*
X227735476Y-61984380D01*
X227735476Y-61412952D02*
X227783095Y-61365333D01*
X227878333Y-61317714D01*
X228021190Y-61317714D01*
X228116428Y-61365333D01*
X228164047Y-61460571D01*
X228164047Y-61984380D01*
X229925952Y-61984380D02*
X229354523Y-61984380D01*
X229640238Y-61984380D02*
X229640238Y-60984380D01*
X229545000Y-61127238D01*
X229449761Y-61222476D01*
X229354523Y-61270095D01*
X230783095Y-61317714D02*
X230783095Y-61984380D01*
X230545000Y-60936761D02*
X230306904Y-61651047D01*
X230925952Y-61651047D01*
X231497380Y-60984380D02*
X231592619Y-60984380D01*
X231687857Y-61032000D01*
X231735476Y-61079619D01*
X231783095Y-61174857D01*
X231830714Y-61365333D01*
X231830714Y-61603428D01*
X231783095Y-61793904D01*
X231735476Y-61889142D01*
X231687857Y-61936761D01*
X231592619Y-61984380D01*
X231497380Y-61984380D01*
X231402142Y-61936761D01*
X231354523Y-61889142D01*
X231306904Y-61793904D01*
X231259285Y-61603428D01*
X231259285Y-61365333D01*
X231306904Y-61174857D01*
X231354523Y-61079619D01*
X231402142Y-61032000D01*
X231497380Y-60984380D01*
X232449761Y-60984380D02*
X232545000Y-60984380D01*
X232640238Y-61032000D01*
X232687857Y-61079619D01*
X232735476Y-61174857D01*
X232783095Y-61365333D01*
X232783095Y-61603428D01*
X232735476Y-61793904D01*
X232687857Y-61889142D01*
X232640238Y-61936761D01*
X232545000Y-61984380D01*
X232449761Y-61984380D01*
X232354523Y-61936761D01*
X232306904Y-61889142D01*
X232259285Y-61793904D01*
X232211666Y-61603428D01*
X232211666Y-61365333D01*
X232259285Y-61174857D01*
X232306904Y-61079619D01*
X232354523Y-61032000D01*
X232449761Y-60984380D01*
X233402142Y-60984380D02*
X233497380Y-60984380D01*
X233592619Y-61032000D01*
X233640238Y-61079619D01*
X233687857Y-61174857D01*
X233735476Y-61365333D01*
X233735476Y-61603428D01*
X233687857Y-61793904D01*
X233640238Y-61889142D01*
X233592619Y-61936761D01*
X233497380Y-61984380D01*
X233402142Y-61984380D01*
X233306904Y-61936761D01*
X233259285Y-61889142D01*
X233211666Y-61793904D01*
X233164047Y-61603428D01*
X233164047Y-61365333D01*
X233211666Y-61174857D01*
X233259285Y-61079619D01*
X233306904Y-61032000D01*
X233402142Y-60984380D01*
X234878333Y-61936761D02*
X235021190Y-61984380D01*
X235259285Y-61984380D01*
X235354523Y-61936761D01*
X235402142Y-61889142D01*
X235449761Y-61793904D01*
X235449761Y-61698666D01*
X235402142Y-61603428D01*
X235354523Y-61555809D01*
X235259285Y-61508190D01*
X235068809Y-61460571D01*
X234973571Y-61412952D01*
X234925952Y-61365333D01*
X234878333Y-61270095D01*
X234878333Y-61174857D01*
X234925952Y-61079619D01*
X234973571Y-61032000D01*
X235068809Y-60984380D01*
X235306904Y-60984380D01*
X235449761Y-61032000D01*
X235830714Y-61698666D02*
X236306904Y-61698666D01*
X235735476Y-61984380D02*
X236068809Y-60984380D01*
X236402142Y-61984380D01*
X236592619Y-60984380D02*
X237164047Y-60984380D01*
X236878333Y-61984380D02*
X236878333Y-60984380D01*
X237449761Y-61698666D02*
X237925952Y-61698666D01*
X237354523Y-61984380D02*
X237687857Y-60984380D01*
X238021190Y-61984380D01*
X239687857Y-61889142D02*
X239640238Y-61936761D01*
X239497380Y-61984380D01*
X239402142Y-61984380D01*
X239259285Y-61936761D01*
X239164047Y-61841523D01*
X239116428Y-61746285D01*
X239068809Y-61555809D01*
X239068809Y-61412952D01*
X239116428Y-61222476D01*
X239164047Y-61127238D01*
X239259285Y-61032000D01*
X239402142Y-60984380D01*
X239497380Y-60984380D01*
X239640238Y-61032000D01*
X239687857Y-61079619D01*
X240545000Y-61984380D02*
X240545000Y-61460571D01*
X240497380Y-61365333D01*
X240402142Y-61317714D01*
X240211666Y-61317714D01*
X240116428Y-61365333D01*
X240545000Y-61936761D02*
X240449761Y-61984380D01*
X240211666Y-61984380D01*
X240116428Y-61936761D01*
X240068809Y-61841523D01*
X240068809Y-61746285D01*
X240116428Y-61651047D01*
X240211666Y-61603428D01*
X240449761Y-61603428D01*
X240545000Y-61555809D01*
X241021190Y-61984380D02*
X241021190Y-61317714D01*
X241021190Y-61508190D02*
X241068809Y-61412952D01*
X241116428Y-61365333D01*
X241211666Y-61317714D01*
X241306904Y-61317714D01*
X241640238Y-61984380D02*
X241640238Y-61317714D01*
X241640238Y-61508190D02*
X241687857Y-61412952D01*
X241735476Y-61365333D01*
X241830714Y-61317714D01*
X241925952Y-61317714D01*
X242259285Y-61984380D02*
X242259285Y-61317714D01*
X242259285Y-60984380D02*
X242211666Y-61032000D01*
X242259285Y-61079619D01*
X242306904Y-61032000D01*
X242259285Y-60984380D01*
X242259285Y-61079619D01*
X243116428Y-61936761D02*
X243021190Y-61984380D01*
X242830714Y-61984380D01*
X242735476Y-61936761D01*
X242687857Y-61841523D01*
X242687857Y-61460571D01*
X242735476Y-61365333D01*
X242830714Y-61317714D01*
X243021190Y-61317714D01*
X243116428Y-61365333D01*
X243164047Y-61460571D01*
X243164047Y-61555809D01*
X242687857Y-61651047D01*
X243592619Y-61984380D02*
X243592619Y-61317714D01*
X243592619Y-61508190D02*
X243640238Y-61412952D01*
X243687857Y-61365333D01*
X243783095Y-61317714D01*
X243878333Y-61317714D01*
X244973571Y-61984380D02*
X244973571Y-60984380D01*
X245354523Y-60984380D01*
X245449761Y-61032000D01*
X245497380Y-61079619D01*
X245545000Y-61174857D01*
X245545000Y-61317714D01*
X245497380Y-61412952D01*
X245449761Y-61460571D01*
X245354523Y-61508190D01*
X244973571Y-61508190D01*
X246545000Y-61889142D02*
X246497380Y-61936761D01*
X246354523Y-61984380D01*
X246259285Y-61984380D01*
X246116428Y-61936761D01*
X246021190Y-61841523D01*
X245973571Y-61746285D01*
X245925952Y-61555809D01*
X245925952Y-61412952D01*
X245973571Y-61222476D01*
X246021190Y-61127238D01*
X246116428Y-61032000D01*
X246259285Y-60984380D01*
X246354523Y-60984380D01*
X246497380Y-61032000D01*
X246545000Y-61079619D01*
X247306904Y-61460571D02*
X247449761Y-61508190D01*
X247497380Y-61555809D01*
X247545000Y-61651047D01*
X247545000Y-61793904D01*
X247497380Y-61889142D01*
X247449761Y-61936761D01*
X247354523Y-61984380D01*
X246973571Y-61984380D01*
X246973571Y-60984380D01*
X247306904Y-60984380D01*
X247402142Y-61032000D01*
X247449761Y-61079619D01*
X247497380Y-61174857D01*
X247497380Y-61270095D01*
X247449761Y-61365333D01*
X247402142Y-61412952D01*
X247306904Y-61460571D01*
X246973571Y-61460571D01*
X248640238Y-61317714D02*
X248878333Y-61984380D01*
X249116428Y-61317714D01*
X249687857Y-60984380D02*
X249783095Y-60984380D01*
X249878333Y-61032000D01*
X249925952Y-61079619D01*
X249973571Y-61174857D01*
X250021190Y-61365333D01*
X250021190Y-61603428D01*
X249973571Y-61793904D01*
X249925952Y-61889142D01*
X249878333Y-61936761D01*
X249783095Y-61984380D01*
X249687857Y-61984380D01*
X249592619Y-61936761D01*
X249545000Y-61889142D01*
X249497380Y-61793904D01*
X249449761Y-61603428D01*
X249449761Y-61365333D01*
X249497380Y-61174857D01*
X249545000Y-61079619D01*
X249592619Y-61032000D01*
X249687857Y-60984380D01*
X250449761Y-61889142D02*
X250497380Y-61936761D01*
X250449761Y-61984380D01*
X250402142Y-61936761D01*
X250449761Y-61889142D01*
X250449761Y-61984380D01*
X251449761Y-61984380D02*
X250878333Y-61984380D01*
X251164047Y-61984380D02*
X251164047Y-60984380D01*
X251068809Y-61127238D01*
X250973571Y-61222476D01*
X250878333Y-61270095D01*
X223045000Y-63634380D02*
X223045000Y-62634380D01*
X223616428Y-63634380D01*
X223616428Y-62634380D01*
X224521190Y-63634380D02*
X224521190Y-63110571D01*
X224473571Y-63015333D01*
X224378333Y-62967714D01*
X224187857Y-62967714D01*
X224092619Y-63015333D01*
X224521190Y-63586761D02*
X224425952Y-63634380D01*
X224187857Y-63634380D01*
X224092619Y-63586761D01*
X224045000Y-63491523D01*
X224045000Y-63396285D01*
X224092619Y-63301047D01*
X224187857Y-63253428D01*
X224425952Y-63253428D01*
X224521190Y-63205809D01*
X224997380Y-63634380D02*
X224997380Y-62967714D01*
X224997380Y-62634380D02*
X224949761Y-62682000D01*
X224997380Y-62729619D01*
X225045000Y-62682000D01*
X224997380Y-62634380D01*
X224997380Y-62729619D01*
X225616428Y-63634380D02*
X225521190Y-63586761D01*
X225473571Y-63491523D01*
X225473571Y-62634380D01*
X225997380Y-63634380D02*
X225997380Y-62967714D01*
X225997380Y-62634380D02*
X225949761Y-62682000D01*
X225997380Y-62729619D01*
X226045000Y-62682000D01*
X225997380Y-62634380D01*
X225997380Y-62729619D01*
X226473571Y-63634380D02*
X226473571Y-62967714D01*
X226473571Y-63062952D02*
X226521190Y-63015333D01*
X226616428Y-62967714D01*
X226759285Y-62967714D01*
X226854523Y-63015333D01*
X226902142Y-63110571D01*
X226902142Y-63634380D01*
X226902142Y-63110571D02*
X226949761Y-63015333D01*
X227045000Y-62967714D01*
X227187857Y-62967714D01*
X227283095Y-63015333D01*
X227330714Y-63110571D01*
X227330714Y-63634380D01*
X228235476Y-63634380D02*
X228235476Y-63110571D01*
X228187857Y-63015333D01*
X228092619Y-62967714D01*
X227902142Y-62967714D01*
X227806904Y-63015333D01*
X228235476Y-63586761D02*
X228140238Y-63634380D01*
X227902142Y-63634380D01*
X227806904Y-63586761D01*
X227759285Y-63491523D01*
X227759285Y-63396285D01*
X227806904Y-63301047D01*
X227902142Y-63253428D01*
X228140238Y-63253428D01*
X228235476Y-63205809D01*
X229473571Y-63634380D02*
X229473571Y-62634380D01*
X229711666Y-62634380D01*
X229854523Y-62682000D01*
X229949761Y-62777238D01*
X229997380Y-62872476D01*
X230045000Y-63062952D01*
X230045000Y-63205809D01*
X229997380Y-63396285D01*
X229949761Y-63491523D01*
X229854523Y-63586761D01*
X229711666Y-63634380D01*
X229473571Y-63634380D01*
X230854523Y-63586761D02*
X230759285Y-63634380D01*
X230568809Y-63634380D01*
X230473571Y-63586761D01*
X230425952Y-63491523D01*
X230425952Y-63110571D01*
X230473571Y-63015333D01*
X230568809Y-62967714D01*
X230759285Y-62967714D01*
X230854523Y-63015333D01*
X230902142Y-63110571D01*
X230902142Y-63205809D01*
X230425952Y-63301047D01*
X231235476Y-62967714D02*
X231473571Y-63634380D01*
X231711666Y-62967714D01*
X232473571Y-63586761D02*
X232378333Y-63634380D01*
X232187857Y-63634380D01*
X232092619Y-63586761D01*
X232045000Y-63491523D01*
X232045000Y-63110571D01*
X232092619Y-63015333D01*
X232187857Y-62967714D01*
X232378333Y-62967714D01*
X232473571Y-63015333D01*
X232521190Y-63110571D01*
X232521190Y-63205809D01*
X232045000Y-63301047D01*
X233092619Y-63634380D02*
X232997380Y-63586761D01*
X232949761Y-63491523D01*
X232949761Y-62634380D01*
X233616428Y-63634380D02*
X233521190Y-63586761D01*
X233473571Y-63539142D01*
X233425952Y-63443904D01*
X233425952Y-63158190D01*
X233473571Y-63062952D01*
X233521190Y-63015333D01*
X233616428Y-62967714D01*
X233759285Y-62967714D01*
X233854523Y-63015333D01*
X233902142Y-63062952D01*
X233949761Y-63158190D01*
X233949761Y-63443904D01*
X233902142Y-63539142D01*
X233854523Y-63586761D01*
X233759285Y-63634380D01*
X233616428Y-63634380D01*
X234378333Y-62967714D02*
X234378333Y-63967714D01*
X234378333Y-63015333D02*
X234473571Y-62967714D01*
X234664047Y-62967714D01*
X234759285Y-63015333D01*
X234806904Y-63062952D01*
X234854523Y-63158190D01*
X234854523Y-63443904D01*
X234806904Y-63539142D01*
X234759285Y-63586761D01*
X234664047Y-63634380D01*
X234473571Y-63634380D01*
X234378333Y-63586761D01*
X235283095Y-63634380D02*
X235283095Y-62967714D01*
X235283095Y-63062952D02*
X235330714Y-63015333D01*
X235425952Y-62967714D01*
X235568809Y-62967714D01*
X235664047Y-63015333D01*
X235711666Y-63110571D01*
X235711666Y-63634380D01*
X235711666Y-63110571D02*
X235759285Y-63015333D01*
X235854523Y-62967714D01*
X235997380Y-62967714D01*
X236092619Y-63015333D01*
X236140238Y-63110571D01*
X236140238Y-63634380D01*
X236997380Y-63586761D02*
X236902142Y-63634380D01*
X236711666Y-63634380D01*
X236616428Y-63586761D01*
X236568809Y-63491523D01*
X236568809Y-63110571D01*
X236616428Y-63015333D01*
X236711666Y-62967714D01*
X236902142Y-62967714D01*
X236997380Y-63015333D01*
X237045000Y-63110571D01*
X237045000Y-63205809D01*
X236568809Y-63301047D01*
X237473571Y-62967714D02*
X237473571Y-63634380D01*
X237473571Y-63062952D02*
X237521190Y-63015333D01*
X237616428Y-62967714D01*
X237759285Y-62967714D01*
X237854523Y-63015333D01*
X237902142Y-63110571D01*
X237902142Y-63634380D01*
X238235476Y-62967714D02*
X238616428Y-62967714D01*
X238378333Y-62634380D02*
X238378333Y-63491523D01*
X238425952Y-63586761D01*
X238521190Y-63634380D01*
X238616428Y-63634380D01*
X239664047Y-62729619D02*
X239711666Y-62682000D01*
X239806904Y-62634380D01*
X240045000Y-62634380D01*
X240140238Y-62682000D01*
X240187857Y-62729619D01*
X240235476Y-62824857D01*
X240235476Y-62920095D01*
X240187857Y-63062952D01*
X239616428Y-63634380D01*
X240235476Y-63634380D01*
X240854523Y-62634380D02*
X240949761Y-62634380D01*
X241045000Y-62682000D01*
X241092619Y-62729619D01*
X241140238Y-62824857D01*
X241187857Y-63015333D01*
X241187857Y-63253428D01*
X241140238Y-63443904D01*
X241092619Y-63539142D01*
X241045000Y-63586761D01*
X240949761Y-63634380D01*
X240854523Y-63634380D01*
X240759285Y-63586761D01*
X240711666Y-63539142D01*
X240664047Y-63443904D01*
X240616428Y-63253428D01*
X240616428Y-63015333D01*
X240664047Y-62824857D01*
X240711666Y-62729619D01*
X240759285Y-62682000D01*
X240854523Y-62634380D01*
X241568809Y-62729619D02*
X241616428Y-62682000D01*
X241711666Y-62634380D01*
X241949761Y-62634380D01*
X242045000Y-62682000D01*
X242092619Y-62729619D01*
X242140238Y-62824857D01*
X242140238Y-62920095D01*
X242092619Y-63062952D01*
X241521190Y-63634380D01*
X242140238Y-63634380D01*
X243092619Y-63634380D02*
X242521190Y-63634380D01*
X242806904Y-63634380D02*
X242806904Y-62634380D01*
X242711666Y-62777238D01*
X242616428Y-62872476D01*
X242521190Y-62920095D01*
D11*
%TO.C,H2*%
X275700000Y-67000000D02*
G75*
G03*
X275700000Y-67000000I-1700000J0D01*
G01*
%TO.C,H1*%
X190700000Y-67000000D02*
G75*
G03*
X190700000Y-67000000I-1700000J0D01*
G01*
D12*
%TO.C,J2*%
X254892000Y-70000000D02*
G75*
G03*
X254892000Y-70000000I-381000J0D01*
G01*
%TO.C,J1*%
X270092000Y-83062500D02*
G75*
G03*
X270092000Y-83062500I-381000J0D01*
G01*
X247767965Y-85691400D02*
X252792085Y-85691400D01*
X261737965Y-85691400D02*
X267933000Y-85691400D01*
X222467000Y-84329185D02*
X222467000Y-85691400D01*
X267933000Y-81795815D02*
X267933000Y-80433600D01*
X267933000Y-85691400D02*
X267933000Y-84329185D01*
X222467000Y-85691400D02*
X228662085Y-85691400D01*
X222467000Y-80433600D02*
X222467000Y-81795815D01*
X267933000Y-80433600D02*
X222467000Y-80433600D01*
%TO.C,H2*%
D10*
X273238095Y-64954380D02*
X273238095Y-63954380D01*
X273238095Y-64430571D02*
X273809523Y-64430571D01*
X273809523Y-64954380D02*
X273809523Y-63954380D01*
X274238095Y-64049619D02*
X274285714Y-64002000D01*
X274380952Y-63954380D01*
X274619047Y-63954380D01*
X274714285Y-64002000D01*
X274761904Y-64049619D01*
X274809523Y-64144857D01*
X274809523Y-64240095D01*
X274761904Y-64382952D01*
X274190476Y-64954380D01*
X274809523Y-64954380D01*
%TO.C,H1*%
X188238095Y-64954380D02*
X188238095Y-63954380D01*
X188238095Y-64430571D02*
X188809523Y-64430571D01*
X188809523Y-64954380D02*
X188809523Y-63954380D01*
X189809523Y-64954380D02*
X189238095Y-64954380D01*
X189523809Y-64954380D02*
X189523809Y-63954380D01*
X189428571Y-64097238D01*
X189333333Y-64192476D01*
X189238095Y-64240095D01*
%TO.C,J1*%
X244866666Y-82514880D02*
X244866666Y-83229166D01*
X244819047Y-83372023D01*
X244723809Y-83467261D01*
X244580952Y-83514880D01*
X244485714Y-83514880D01*
X245866666Y-83514880D02*
X245295238Y-83514880D01*
X245580952Y-83514880D02*
X245580952Y-82514880D01*
X245485714Y-82657738D01*
X245390476Y-82752976D01*
X245295238Y-82800595D01*
X241533333Y-83514880D02*
X240961904Y-83514880D01*
X241247619Y-83514880D02*
X241247619Y-82514880D01*
X241152380Y-82657738D01*
X241057142Y-82752976D01*
X240961904Y-82800595D01*
X241866666Y-82514880D02*
X242533333Y-82514880D01*
X242104761Y-83514880D01*
X242819047Y-82514880D02*
X243438095Y-82514880D01*
X243104761Y-82895833D01*
X243247619Y-82895833D01*
X243342857Y-82943452D01*
X243390476Y-82991071D01*
X243438095Y-83086309D01*
X243438095Y-83324404D01*
X243390476Y-83419642D01*
X243342857Y-83467261D01*
X243247619Y-83514880D01*
X242961904Y-83514880D01*
X242866666Y-83467261D01*
X242819047Y-83419642D01*
X244342857Y-82514880D02*
X243866666Y-82514880D01*
X243819047Y-82991071D01*
X243866666Y-82943452D01*
X243961904Y-82895833D01*
X244200000Y-82895833D01*
X244295238Y-82943452D01*
X244342857Y-82991071D01*
X244390476Y-83086309D01*
X244390476Y-83324404D01*
X244342857Y-83419642D01*
X244295238Y-83467261D01*
X244200000Y-83514880D01*
X243961904Y-83514880D01*
X243866666Y-83467261D01*
X243819047Y-83419642D01*
X244771428Y-82610119D02*
X244819047Y-82562500D01*
X244914285Y-82514880D01*
X245152380Y-82514880D01*
X245247619Y-82562500D01*
X245295238Y-82610119D01*
X245342857Y-82705357D01*
X245342857Y-82800595D01*
X245295238Y-82943452D01*
X244723809Y-83514880D01*
X245342857Y-83514880D01*
X245914285Y-82943452D02*
X245819047Y-82895833D01*
X245771428Y-82848214D01*
X245723809Y-82752976D01*
X245723809Y-82705357D01*
X245771428Y-82610119D01*
X245819047Y-82562500D01*
X245914285Y-82514880D01*
X246104761Y-82514880D01*
X246200000Y-82562500D01*
X246247619Y-82610119D01*
X246295238Y-82705357D01*
X246295238Y-82752976D01*
X246247619Y-82848214D01*
X246200000Y-82895833D01*
X246104761Y-82943452D01*
X245914285Y-82943452D01*
X245819047Y-82991071D01*
X245771428Y-83038690D01*
X245723809Y-83133928D01*
X245723809Y-83324404D01*
X245771428Y-83419642D01*
X245819047Y-83467261D01*
X245914285Y-83514880D01*
X246104761Y-83514880D01*
X246200000Y-83467261D01*
X246247619Y-83419642D01*
X246295238Y-83324404D01*
X246295238Y-83133928D01*
X246247619Y-83038690D01*
X246200000Y-82991071D01*
X246104761Y-82943452D01*
X247152380Y-82848214D02*
X247152380Y-83514880D01*
X246914285Y-82467261D02*
X246676190Y-83181547D01*
X247295238Y-83181547D01*
X247676190Y-83133928D02*
X248438095Y-83133928D01*
X248819047Y-82514880D02*
X249438095Y-82514880D01*
X249104761Y-82895833D01*
X249247619Y-82895833D01*
X249342857Y-82943452D01*
X249390476Y-82991071D01*
X249438095Y-83086309D01*
X249438095Y-83324404D01*
X249390476Y-83419642D01*
X249342857Y-83467261D01*
X249247619Y-83514880D01*
X248961904Y-83514880D01*
X248866666Y-83467261D01*
X248819047Y-83419642D01*
X245200000Y-82514880D02*
X245200000Y-82752976D01*
X244961904Y-82657738D02*
X245200000Y-82752976D01*
X245438095Y-82657738D01*
X245057142Y-82943452D02*
X245200000Y-82752976D01*
X245342857Y-82943452D01*
%TD*%
M02*
